<?xml version="1.0" encoding="UTF-8" standalone="no"?>
<!-- Created with Inkscape (http://www.inkscape.org/) -->

<svg
   width="210mm"
   height="297mm"
   viewBox="0 0 210 297"
   version="1.1"
   id="svg1"
   inkscape:version="1.4 (86a8ad7, 2024-10-11)"
   sodipodi:docname="Logo lumnia.svg"
   inkscape:export-filename="Logo lumnia.png"
   inkscape:export-xdpi="300"
   inkscape:export-ydpi="300"
   xmlns:inkscape="http://www.inkscape.org/namespaces/inkscape"
   xmlns:sodipodi="http://sodipodi.sourceforge.net/DTD/sodipodi-0.dtd"
   xmlns="http://www.w3.org/2000/svg"
   xmlns:svg="http://www.w3.org/2000/svg">
  <sodipodi:namedview
     id="namedview1"
     pagecolor="#ffffff"
     bordercolor="#000000"
     borderopacity="0.25"
     inkscape:showpageshadow="2"
     inkscape:pageopacity="0.0"
     inkscape:pagecheckerboard="0"
     inkscape:deskcolor="#d1d1d1"
     inkscape:document-units="mm"
     inkscape:zoom="0.70710678"
     inkscape:cx="132.22897"
     inkscape:cy="730.44131"
     inkscape:window-width="1920"
     inkscape:window-height="1009"
     inkscape:window-x="-8"
     inkscape:window-y="-8"
     inkscape:window-maximized="1"
     inkscape:current-layer="layer1"
     showgrid="false" />
  <defs
     id="defs1">
    <inkscape:path-effect
       effect="bspline"
       id="path-effect17"
       is_visible="true"
       lpeversion="1.3"
       weight="33.333333"
       steps="2"
       helper_size="0"
       apply_no_weight="true"
       apply_with_weight="true"
       only_selected="false"
       uniform="false" />
    <inkscape:path-effect
       effect="bspline"
       id="path-effect16"
       is_visible="true"
       lpeversion="1.3"
       weight="33.333333"
       steps="2"
       helper_size="0"
       apply_no_weight="true"
       apply_with_weight="true"
       only_selected="false"
       uniform="false" />
    <inkscape:path-effect
       effect="bspline"
       id="path-effect15"
       is_visible="true"
       lpeversion="1.3"
       weight="33.333333"
       steps="2"
       helper_size="0"
       apply_no_weight="true"
       apply_with_weight="true"
       only_selected="false"
       uniform="false" />
    <inkscape:path-effect
       effect="spiro"
       id="path-effect14"
       is_visible="true"
       lpeversion="1" />
  </defs>
  <g
     inkscape:label="Camada 1"
     inkscape:groupmode="layer"
     id="layer1"
     transform="matrix(6.9826579,0,0,6.7539777,-53.455208,-26.224292)">
    <path
       style="opacity:1;fill:#c9c926;fill-opacity:1;stroke:#000000;stroke-width:0;stroke-dasharray:none;stroke-opacity:1"
       d="M 100.49276,105.86671 86.520506,123.95899"
       id="path14"
       inkscape:path-effect="#path-effect14"
       inkscape:original-d="M 100.49276,105.86671 86.520506,123.95899"
       transform="translate(-77.080532,-93.170158)" />
    <path
       style="opacity:1;fill:none;fill-opacity:1;stroke:#000000;stroke-width:1.5;stroke-dasharray:none;stroke-opacity:1"
       d="M 23.053968,6.785209 10.1565,30.251432 22.874835,44.940212 35.414038,31.326222 Z"
       id="path21" />
    <path
       style="opacity:1;fill:none;fill-opacity:1;stroke:#0df2dd;stroke-width:0.376098;stroke-dasharray:none;stroke-opacity:1"
       d="M 22.946338,4.969198 36.234088,31.361252 22.946338,46.212092 9.1571657,30.427772 Z"
       id="path23" />
    <path
       style="opacity:1;fill:#28170b;fill-opacity:1;stroke:#000000;stroke-width:0.4;stroke-dasharray:none;stroke-opacity:1"
       d="m 23.009178,8.397392 -0.179126,24.49623 -11.867459,-2.59741 11.912242,2.55263 11.777893,-1.65697 -11.822676,1.70175 0.04478,11.06137 v -11.06137 z"
       id="path24" />
    <path
       style="opacity:1;fill:#28170b;fill-opacity:1;stroke:#16f1e1;stroke-width:0.1;stroke-dasharray:none;stroke-opacity:1"
       d="m 22.806763,8.799192 -0.170206,23.79325"
       id="path30" />
    <rect
       style="opacity:1;fill:#000000;fill-opacity:1;stroke:#000000;stroke-width:0.1;stroke-dasharray:none;stroke-opacity:1"
       id="rect32"
       width="0.20186906"
       height="0.11875092"
       x="22.569263"
       y="8.6289825"
       ry="1.2026164e-06"
       rx="0.005935716" />
    <rect
       style="opacity:1;fill:#000000;fill-opacity:1;stroke:#000000;stroke-width:0.113996;stroke-dasharray:none;stroke-opacity:1"
       id="rect33"
       width="0.092877865"
       height="0.045378458"
       x="22.041897"
       y="8.632019"
       rx="0.0060555078"
       ry="1.5318894e-06" />
    <path
       style="opacity:1;fill:#000000;fill-opacity:1;stroke:#00ffec;stroke-width:0.1;stroke-dasharray:none;stroke-opacity:1"
       d="m 23.210688,8.768312 -0.13301,23.85381"
       id="path33" />
    <path
       style="opacity:1;fill:#000000;fill-opacity:1;stroke:#00ffec;stroke-width:0.1;stroke-dasharray:none;stroke-opacity:1"
       d="m 23.089068,33.069162 -0.0165,10.53373"
       id="path34" />
    <path
       style="opacity:1;fill:#000000;fill-opacity:1;stroke:#00ffec;stroke-width:0.1;stroke-dasharray:none;stroke-opacity:1"
       d="m 23.064258,43.594622 11.21172,-12.1295"
       id="path35" />
    <path
       style="opacity:1;fill:#000000;fill-opacity:1;stroke:#00ffec;stroke-width:0.1;stroke-dasharray:none;stroke-opacity:1"
       d="m 34.251168,31.481662 -11.12076,1.62884"
       id="path36" />
    <path
       style="opacity:1;fill:#000000;fill-opacity:1;stroke:#00ffec;stroke-width:0.1;stroke-dasharray:none;stroke-opacity:1"
       d="m 11.488412,30.612382 11.18724,12.94916"
       id="path37" />
    <path
       style="opacity:1;fill:none;fill-opacity:1;stroke:#00ffec;stroke-width:0.1;stroke-dasharray:none;stroke-opacity:1"
       d="m 22.667383,43.561542 -0.09095,-10.49238"
       id="path38" />
    <path
       style="opacity:1;fill:#000000;fill-opacity:1;stroke:#00ffec;stroke-width:0.1;stroke-dasharray:none;stroke-opacity:1"
       d="M 22.584701,33.118772 11.497006,30.638302"
       id="path39" />
    <path
       style="opacity:1;fill:#000000;fill-opacity:1;stroke:#00ffec;stroke-width:0.1;stroke-dasharray:none;stroke-opacity:1"
       d="m 23.097328,32.606142 11.27787,-1.60404"
       id="path40" />
    <path
       style="opacity:1;fill:#000000;fill-opacity:1;stroke:#00ffec;stroke-width:0.1;stroke-dasharray:none;stroke-opacity:1"
       d="m 23.228228,8.793162 11.16101,22.24017"
       id="path41" />
    <path
       style="opacity:1;fill:#000000;fill-opacity:1;stroke:#00ffec;stroke-width:0.1;stroke-dasharray:none;stroke-opacity:1"
       d="M 22.813124,8.851632 11.120081,30.074502"
       id="path42" />
    <path
       style="opacity:1;fill:#000000;fill-opacity:1;stroke:#00ffec;stroke-width:0.1;stroke-dasharray:none;stroke-opacity:1"
       d="M 22.614342,32.553422 11.096694,30.097892"
       id="path43" />
    <path
       style="opacity:1;fill:#000000;fill-opacity:1;stroke:#00ffec;stroke-width:0.0176777;stroke-dasharray:none;stroke-opacity:1"
       d="m 16.848214,31.252582 c -3.543596,-0.758111 -5.597591,-1.217499 -5.589272,-1.250077 0.0072,-0.02833 2.580941,-4.711234 5.719352,-10.406459 l 5.706205,-10.3549584 0.0136,1.4247574 c 0.0075,0.783617 -0.01894,5.834203 -0.05868,11.223527 -0.03975,5.389322 -0.07217,9.97241 -0.07206,10.184638 1.56e-4,0.279948 -0.01582,0.384675 -0.05825,0.381508 -0.03216,-0.0024 -2.579555,-0.543719 -5.66089,-1.202936 z"
       id="path44" />
    <path
       style="opacity:1;fill:#000000;fill-opacity:1;stroke:#00ffec;stroke-width:0.025;stroke-dasharray:none;stroke-opacity:1"
       d="m 23.189186,25.75232 c 0.02262,-3.724722 0.05948,-8.985207 0.08191,-11.689968 l 0.04079,-4.91775 5.451641,10.8649 c 2.998404,5.975694 5.428118,10.885694 5.399366,10.91111 -0.02875,0.02543 -2.418644,0.379092 -5.310871,0.785947 -2.892226,0.406855 -5.358799,0.757341 -5.481272,0.778857 l -0.222681,0.03912 z"
       id="path45" />
    <path
       style="opacity:1;fill:#000000;fill-opacity:1;stroke:#00ffec;stroke-width:0.025;stroke-dasharray:none;stroke-opacity:1"
       d="m 23.163477,38.262003 c 0,-3.749416 0.01976,-5.093621 0.07492,-5.093621 0.04121,0 2.415016,-0.343262 5.27513,-0.762807 2.860114,-0.419544 5.256395,-0.754409 5.325065,-0.74414 0.09319,0.01394 -0.627742,0.832379 -2.842276,3.226739 -1.631923,1.76444 -4.061918,4.391432 -5.399987,5.837761 l -2.432854,2.629688 z"
       id="path46" />
    <path
       style="opacity:1;fill:#000000;fill-opacity:1;stroke:#00ffec;stroke-width:0.025;stroke-dasharray:none;stroke-opacity:1"
       d="m 17.162645,37.05432 c -2.954843,-3.424796 -5.364887,-6.234454 -5.355654,-6.243688 0.01638,-0.01638 10.646199,2.352525 10.670678,2.377996 0.02527,0.02627 0.108601,10.099918 0.08353,10.096328 -0.01437,-0.0021 -2.443708,-2.805843 -5.398554,-6.230636 z"
       id="path47" />
  </g>
</svg>
